<svg width="562" height="451" viewBox="0 0 562 451" fill="none" xmlns="http://www.w3.org/2000/svg">
<path d="M235.502 20.5169C233.227 11.9782 238.302 3.12134 247.034 1.76838C272.009 -2.10118 297.651 0.390779 321.547 9.13515C350.47 19.7191 375.434 38.9498 393.048 64.2149C410.662 89.4799 420.072 119.555 420 150.353C419.927 181.152 410.376 211.182 392.643 236.364C374.91 261.546 349.855 280.659 320.883 291.106C291.91 301.554 260.423 302.83 230.7 294.76C200.977 286.691 174.458 269.668 154.746 246.003C138.461 226.452 127.473 203.15 122.7 178.332C121.031 169.654 127.659 161.891 136.465 161.156L171.408 158.237C180.214 157.501 187.799 164.121 190.209 172.622C193.359 183.731 198.811 194.119 206.276 203.081C217.175 216.165 231.837 225.577 248.271 230.039C264.705 234.5 282.114 233.795 298.133 228.018C314.152 222.242 328.005 211.674 337.81 197.751C347.614 183.828 352.895 167.224 352.935 150.195C352.976 133.167 347.773 116.538 338.034 102.569C328.295 88.5998 314.492 77.9671 298.501 72.1151C287.547 68.1068 275.93 66.4746 264.41 67.2528C255.593 67.8484 246.804 62.9379 244.529 54.3992L235.502 20.5169Z" fill="#48BDFF"/>
<circle cx="271.393" cy="148.607" r="129.102" fill="#4870FF"/>
<rect x="190.588" y="56.6562" width="158.824" height="187.616" rx="21" fill="#D9D9D9"/>
<path d="M211.486 119.35H331.3M211.486 141.641H331.3M211.486 79.4119H331.3M211.486 98.9165H331.3M280.255 202.98L331.339 203.832M280.255 225.271L331.339 226.123M280.217 163.932H331.3M280.255 182.547L331.339 183.398" stroke="#342713" stroke-width="5" stroke-linecap="round"/>
<path d="M345.186 93.4918C346.33 90.5887 349.611 89.1631 352.515 90.3076C355.418 91.4521 356.843 94.7333 355.699 97.6364L293.323 255.856C292.178 258.759 288.897 260.185 285.994 259.04C283.091 257.896 281.665 254.614 282.81 251.711L345.186 93.4918Z" fill="#C78F3B"/>
<path d="M291.496 257.629C292.152 257.924 292.237 258.821 291.649 259.235L282.861 265.427C282.238 265.866 281.379 265.407 281.398 264.645L281.646 254.61C281.662 253.946 282.35 253.513 282.955 253.786L291.496 257.629Z" fill="#342713"/>
<circle cx="241.086" cy="185.106" r="3.45599" stroke="#342713" stroke-width="2"/>
<path d="M213.322 207.386L227.372 196.458C228.16 195.845 229.279 195.907 229.994 196.603L239.574 205.917C240.396 206.716 241.719 206.662 242.474 205.8L253.868 192.778C254.702 191.825 256.199 191.877 256.965 192.884L268.142 207.585" stroke="#342713" stroke-width="3" stroke-linecap="round"/>
<rect x="213.45" y="167.754" width="54.5851" height="54.5851" rx="12.5" stroke="#342713" stroke-width="3"/>
<path d="M214.042 209.94C213.896 207.599 214.932 205.34 216.802 203.924L223.501 198.849C226.603 196.499 231.026 197.13 233.347 200.254L235.007 202.489C237.97 206.477 244.028 206.196 246.608 201.951L249.562 197.092C252.302 192.583 258.857 192.612 261.557 197.145L267.319 206.817C268.152 208.214 268.472 209.857 268.224 211.464L267.662 215.117C267.137 218.532 264.199 221.053 260.744 221.053H221.313C217.617 221.053 214.557 218.178 214.327 214.489L214.042 209.94Z" fill="#342713"/>
<path d="M114.496 309.973C115.017 309.061 115.668 308.508 116.449 308.312C117.23 308.052 117.979 307.922 118.695 307.922C119.802 307.922 121.104 309.484 122.602 312.609C124.099 315.734 125.661 319.803 127.289 324.816C128.982 329.829 130.674 335.493 132.367 341.809C134.06 348.124 135.59 354.504 136.957 360.949C136.957 361.079 136.957 361.21 136.957 361.34C137.022 361.405 137.055 361.503 137.055 361.633C137.055 362.674 136.632 363.553 135.785 364.27C134.939 364.986 133.962 365.344 132.855 365.344C132.139 365.344 131.521 365.116 131 364.66C130.479 364.27 130.121 363.553 129.926 362.512C129.6 360.624 129.047 358.312 128.266 355.578C127.484 352.844 126.736 349.914 126.02 346.789C124.587 346.919 122.895 347.049 120.941 347.18C119.053 347.245 117.1 347.277 115.082 347.277C114.04 347.277 113.031 347.277 112.055 347.277C111.143 347.212 110.232 347.147 109.32 347.082C108.279 350.402 107.335 353.397 106.488 356.066C105.642 358.736 104.991 360.884 104.535 362.512C104.21 363.618 103.721 364.367 103.07 364.758C102.484 365.148 101.833 365.344 101.117 365.344C100.206 365.344 99.3268 364.986 98.4805 364.27C97.6992 363.618 97.3086 362.837 97.3086 361.926C97.3086 361.796 97.3737 361.47 97.5039 360.949L105.609 334.875C106.391 332.271 107.204 329.699 108.051 327.16C108.897 324.556 109.711 322.147 110.492 319.934C111.273 317.72 111.99 315.767 112.641 314.074C113.357 312.316 113.975 310.949 114.496 309.973ZM118.207 320.227C117.165 323.026 116.059 326.184 114.887 329.699C113.715 333.215 112.576 336.73 111.469 340.246C112.185 340.246 112.934 340.279 113.715 340.344C114.496 340.344 115.277 340.344 116.059 340.344C118.988 340.344 121.69 340.246 124.164 340.051C123.188 336.535 122.178 333.052 121.137 329.602C120.095 326.151 119.118 323.026 118.207 320.227ZM144.574 312.902C144.053 312.186 143.793 311.535 143.793 310.949C143.793 309.973 144.249 309.126 145.16 308.41C146.072 307.694 147.016 307.336 147.992 307.336C148.904 307.336 149.783 307.792 150.629 308.703C151.54 309.615 152.354 310.721 153.07 312.023C153.786 313.26 154.438 314.562 155.023 315.93C155.609 317.232 156.098 318.306 156.488 319.152C156.684 321.952 156.814 324.784 156.879 327.648C156.944 330.448 156.977 333.312 156.977 336.242C156.977 340.93 156.911 345.454 156.781 349.816C156.716 354.113 156.618 358.215 156.488 362.121C156.423 363.098 156.098 363.814 155.512 364.27C154.926 364.79 154.21 365.051 153.363 365.051C152.387 365.051 151.41 364.758 150.434 364.172C149.522 363.586 149.066 362.772 149.066 361.73C149.066 358.996 149.164 355.904 149.359 352.453C149.62 348.938 149.75 345.292 149.75 341.516C149.75 337.935 149.717 334.387 149.652 330.871C149.587 327.29 149.457 324.035 149.262 321.105C148.676 319.868 147.992 318.534 147.211 317.102C146.43 315.669 145.551 314.27 144.574 312.902ZM187.348 313.684C186.827 313.098 186.566 312.447 186.566 311.73C186.566 310.689 186.99 309.842 187.836 309.191C188.747 308.475 189.691 308.117 190.668 308.117C191.645 308.117 192.589 308.638 193.5 309.68C194.411 310.656 195.225 311.828 195.941 313.195C196.658 314.497 197.276 315.767 197.797 317.004C198.318 318.241 198.676 319.087 198.871 319.543C199.001 322.928 199.099 326.216 199.164 329.406C199.229 332.531 199.262 335.624 199.262 338.684C199.262 340.832 199.262 342.948 199.262 345.031C199.262 347.049 199.197 349.1 199.066 351.184C199.197 352.811 199.652 354.276 200.434 355.578C201.28 356.88 202.061 358.215 202.777 359.582C202.973 359.973 203.07 360.363 203.07 360.754C203.07 361.796 202.615 362.609 201.703 363.195C200.857 363.846 199.978 364.172 199.066 364.172C196.853 364.172 194.965 362.089 193.402 357.922C190.538 360.591 187.087 361.926 183.051 361.926C178.168 361.926 174.294 360.624 171.43 358.02C168.63 355.35 167.23 351.379 167.23 346.105C167.23 343.697 167.719 341.548 168.695 339.66C169.672 337.772 170.876 336.21 172.309 334.973C173.806 333.671 175.434 332.694 177.191 332.043C179.014 331.392 180.772 331.066 182.465 331.066C184.027 331.197 185.655 331.522 187.348 332.043C189.04 332.564 190.635 333.28 192.133 334.191C192.133 331.978 192.1 329.797 192.035 327.648C191.97 325.435 191.84 323.319 191.645 321.301C191.059 320.064 190.44 318.827 189.789 317.59C189.138 316.353 188.324 315.051 187.348 313.684ZM191.84 346.789V346.008C191.775 343.729 190.798 341.809 188.91 340.246C187.087 338.684 184.646 337.902 181.586 337.902C180.935 337.902 180.186 338.065 179.34 338.391C178.559 338.716 177.777 339.237 176.996 339.953C176.28 340.604 175.661 341.483 175.141 342.59C174.685 343.697 174.457 344.999 174.457 346.496C174.457 348.97 175.173 351.053 176.605 352.746C178.038 354.439 179.991 355.285 182.465 355.285C183.572 355.285 184.646 355.09 185.688 354.699C186.794 354.243 187.771 353.625 188.617 352.844C189.529 352.062 190.245 351.151 190.766 350.109C191.352 349.068 191.71 347.961 191.84 346.789ZM208.832 319.152C208.376 318.632 208.148 317.98 208.148 317.199C208.148 316.223 208.507 315.376 209.223 314.66C209.939 313.879 210.85 313.488 211.957 313.488C213.65 313.488 215.049 314.302 216.156 315.93C217.263 317.492 218.109 319.348 218.695 321.496C219.346 323.645 219.802 325.858 220.062 328.137C220.388 330.415 220.616 332.238 220.746 333.605C221.788 333.345 222.829 333.117 223.871 332.922C224.913 332.727 226.052 332.629 227.289 332.629C228.331 332.629 229.698 332.727 231.391 332.922C233.148 333.052 234.841 333.671 236.469 334.777C238.096 335.819 239.496 337.512 240.668 339.855C241.84 342.199 242.426 345.552 242.426 349.914C242.426 351.997 242.393 353.983 242.328 355.871C242.263 357.759 242.068 359.452 241.742 360.949C241.482 362.447 241.059 363.618 240.473 364.465C239.887 365.376 239.073 365.832 238.031 365.832C237.185 365.832 236.339 365.572 235.492 365.051C234.711 364.53 234.32 363.814 234.32 362.902C234.32 361.796 234.451 360.396 234.711 358.703C234.971 356.945 235.102 355.122 235.102 353.234C235.102 350.826 235.036 348.775 234.906 347.082C234.776 345.324 234.451 343.892 233.93 342.785C233.409 341.678 232.595 340.897 231.488 340.441C230.382 339.921 228.852 339.66 226.898 339.66C226.573 339.66 226.247 339.693 225.922 339.758C225.596 339.758 225.271 339.758 224.945 339.758L221.039 340.734C221.039 344.315 220.974 347.928 220.844 351.574C220.714 355.22 220.486 358.605 220.16 361.73C220.03 362.837 219.574 363.684 218.793 364.27C218.012 364.921 217.165 365.246 216.254 365.246C215.342 365.246 214.561 364.986 213.91 364.465C213.259 364.009 212.934 363.293 212.934 362.316C212.934 358.931 213.031 355.448 213.227 351.867C213.487 348.286 213.617 344.771 213.617 341.32C213.617 339.237 213.617 337.284 213.617 335.461C213.682 333.638 213.585 331.88 213.324 330.188C213.064 328.43 212.576 326.672 211.859 324.914C211.208 323.091 210.199 321.171 208.832 319.152ZM262.445 332.531C262.836 332.206 263.389 332.043 264.105 332.043C266.319 332.238 268.305 332.857 270.062 333.898C271.82 334.875 273.285 336.112 274.457 337.609C275.694 339.042 276.605 340.637 277.191 342.395C277.842 344.152 278.168 345.845 278.168 347.473V347.961C278.624 349.458 279.112 350.63 279.633 351.477C280.154 352.323 280.707 352.974 281.293 353.43C281.944 353.885 282.562 354.178 283.148 354.309C283.799 354.374 284.451 354.406 285.102 354.406C285.688 354.406 286.306 354.276 286.957 354.016C287.673 353.755 288.487 353.625 289.398 353.625C290.245 353.625 290.928 353.983 291.449 354.699C292.035 355.35 292.328 356.066 292.328 356.848C292.328 357.564 292.1 358.215 291.645 358.801C291.254 359.322 290.701 359.777 289.984 360.168C289.333 360.493 288.585 360.754 287.738 360.949C286.957 361.079 286.176 361.145 285.395 361.145C282.921 361.145 280.772 360.624 278.949 359.582C277.126 358.54 275.694 357.336 274.652 355.969C273.35 357.466 271.788 358.638 269.965 359.484C268.142 360.331 266.221 360.754 264.203 360.754C262.38 360.754 260.557 360.461 258.734 359.875C256.911 359.289 255.284 358.41 253.852 357.238C252.419 356.066 251.247 354.634 250.336 352.941C249.424 351.184 248.969 349.133 248.969 346.789C248.969 345.422 249.197 343.99 249.652 342.492C250.173 340.995 250.922 339.562 251.898 338.195C252.875 336.828 254.047 335.624 255.414 334.582C256.846 333.54 258.507 332.824 260.395 332.434H260.98C261.632 332.434 262.12 332.466 262.445 332.531ZM263.031 338.684C260.753 339.4 259.092 340.441 258.051 341.809C257.009 343.111 256.488 344.641 256.488 346.398C256.488 348.482 257.009 350.272 258.051 351.77C259.158 353.202 261.176 353.918 264.105 353.918C265.798 353.918 267.296 353.299 268.598 352.062C269.9 350.826 270.551 349.165 270.551 347.082C270.551 345.65 270.323 344.478 269.867 343.566C269.477 342.59 268.923 341.809 268.207 341.223C267.556 340.572 266.775 340.083 265.863 339.758C264.952 339.367 264.008 339.009 263.031 338.684ZM306.684 360.168C306.488 361.145 306 361.893 305.219 362.414C304.438 362.87 303.624 363.098 302.777 363.098C301.801 363.098 300.987 362.837 300.336 362.316C299.75 361.73 299.457 360.884 299.457 359.777L300.629 337.512C300.759 335.298 300.824 333.15 300.824 331.066C300.889 328.983 300.922 326.997 300.922 325.109C300.922 321.789 300.824 319.087 300.629 317.004C300.173 316.288 299.652 315.669 299.066 315.148C298.48 314.562 298.188 313.814 298.188 312.902C298.188 311.145 299.555 310.266 302.289 310.266C303.461 310.266 304.372 310.493 305.023 310.949C305.674 311.405 306.456 312.056 307.367 312.902L307.66 313.293C308.376 314.79 309.548 316.906 311.176 319.641C312.868 322.31 314.789 325.305 316.938 328.625C319.086 331.88 321.299 335.266 323.578 338.781C325.922 342.297 328.103 345.585 330.121 348.645C330.316 342.59 330.414 336.275 330.414 329.699C330.414 326.444 330.382 323.254 330.316 320.129C330.316 316.939 330.251 313.879 330.121 310.949C330.121 310.168 330.479 309.582 331.195 309.191C331.911 308.736 332.725 308.508 333.637 308.508C334.418 308.508 335.167 308.671 335.883 308.996C336.599 309.322 337.087 309.842 337.348 310.559C337.478 315.441 337.543 319.934 337.543 324.035C337.608 328.072 337.641 332.043 337.641 335.949C337.641 339.855 337.51 343.762 337.25 347.668C337.055 351.509 336.892 355.676 336.762 360.168C336.566 361.275 336.111 362.089 335.395 362.609C334.743 363.13 334.06 363.391 333.344 363.391C332.628 363.391 332.009 363.26 331.488 363C330.967 362.805 330.447 362.316 329.926 361.535C328.233 358.736 326.41 355.871 324.457 352.941C322.569 350.012 320.648 347.115 318.695 344.25C316.807 341.385 314.952 338.586 313.129 335.852C311.306 333.052 309.613 330.448 308.051 328.039C308.051 331.229 308.018 334.419 307.953 337.609C307.888 340.799 307.79 343.827 307.66 346.691C307.53 349.491 307.367 352.062 307.172 354.406C307.042 356.685 306.879 358.605 306.684 360.168ZM361.566 332.629C361.827 332.434 362.12 332.271 362.445 332.141C362.771 331.945 363.129 331.848 363.52 331.848C365.212 331.978 366.97 332.434 368.793 333.215C370.616 333.996 372.276 335.103 373.773 336.535C375.271 337.967 376.508 339.693 377.484 341.711C378.461 343.729 378.949 346.04 378.949 348.645C378.884 351.379 378.396 353.788 377.484 355.871C376.638 357.889 375.466 359.582 373.969 360.949C372.536 362.316 370.811 363.326 368.793 363.977C366.84 364.693 364.691 365.051 362.348 365.051C360.525 365.051 358.669 364.693 356.781 363.977C354.893 363.326 353.201 362.349 351.703 361.047C350.206 359.68 348.969 358.052 347.992 356.164C347.016 354.276 346.527 352.095 346.527 349.621C346.527 347.408 346.951 345.259 347.797 343.176C348.643 341.027 349.685 339.139 350.922 337.512C352.224 335.884 353.624 334.582 355.121 333.605C356.684 332.629 358.148 332.141 359.516 332.141C360.232 332.141 360.915 332.303 361.566 332.629ZM362.152 338.391C360.98 338.977 359.906 339.595 358.93 340.246C358.018 340.832 357.204 341.548 356.488 342.395C355.837 343.241 355.316 344.283 354.926 345.52C354.6 346.757 354.438 348.286 354.438 350.109C354.438 351.737 354.698 353.072 355.219 354.113C355.805 355.155 356.521 356.001 357.367 356.652C358.279 357.238 359.255 357.661 360.297 357.922C361.404 358.117 362.478 358.215 363.52 358.215C365.733 358.215 367.589 357.336 369.086 355.578C370.583 353.82 371.332 351.672 371.332 349.133C371.332 347.18 371.039 345.585 370.453 344.348C369.932 343.111 369.216 342.134 368.305 341.418C367.458 340.637 366.482 340.051 365.375 339.66C364.268 339.204 363.194 338.781 362.152 338.391ZM393.402 352.16C393.467 350.858 393.5 349.589 393.5 348.352C393.5 347.115 393.533 345.91 393.598 344.738L393.891 337.902H390.668C389.757 337.902 388.943 337.902 388.227 337.902C387.576 337.837 386.99 337.707 386.469 337.512C385.948 337.251 385.557 336.861 385.297 336.34C385.036 335.819 384.906 335.07 384.906 334.094C384.906 333.312 385.069 332.629 385.395 332.043C385.785 331.392 386.371 331.066 387.152 331.066C387.934 331.066 388.91 331.099 390.082 331.164C391.319 331.229 392.686 331.229 394.184 331.164C394.184 327.583 394.118 324.035 393.988 320.52C393.858 317.004 393.793 313.26 393.793 309.289C393.793 308.182 394.184 307.401 394.965 306.945C395.746 306.424 396.592 306.164 397.504 306.164C398.871 306.164 399.848 306.685 400.434 307.727C401.02 308.703 401.41 309.908 401.605 311.34C401.801 312.772 401.833 314.27 401.703 315.832C401.638 317.329 401.605 318.566 401.605 319.543C401.605 323.645 401.508 327.486 401.312 331.066C404.438 331.066 407.4 331.034 410.199 330.969C413.064 330.839 415.277 330.676 416.84 330.48C417.621 330.611 418.174 331.034 418.5 331.75C418.891 332.401 419.086 333.117 419.086 333.898C419.086 335.005 418.826 335.819 418.305 336.34C417.849 336.861 416.938 337.251 415.57 337.512C414.268 337.772 412.445 337.902 410.102 337.902C407.823 337.902 404.828 337.902 401.117 337.902C400.987 340.051 400.889 342.264 400.824 344.543C400.824 346.822 400.824 349.23 400.824 351.77C400.824 354.309 401.28 356.262 402.191 357.629C403.103 358.931 404.275 359.582 405.707 359.582C407.27 359.582 408.669 359.029 409.906 357.922C411.143 356.75 412.348 355.22 413.52 353.332C413.91 352.681 414.561 352.355 415.473 352.355C416.384 352.355 417.198 352.681 417.914 353.332C418.695 353.983 419.086 354.764 419.086 355.676C419.086 356.978 418.63 358.28 417.719 359.582C416.807 360.819 415.635 361.958 414.203 363C412.771 364.042 411.176 364.888 409.418 365.539C407.66 366.19 405.967 366.516 404.34 366.516C402.322 366.516 400.596 366.092 399.164 365.246C397.797 364.4 396.69 363.293 395.844 361.926C394.997 360.559 394.379 359.029 393.988 357.336C393.598 355.578 393.402 353.853 393.402 352.16ZM459.809 335.949C461.827 338.749 462.836 341.19 462.836 343.273C462.836 345.487 461.697 346.952 459.418 347.668L439.008 353.723C439.854 355.025 440.928 356.034 442.23 356.75C443.598 357.466 444.965 357.824 446.332 357.824C448.48 357.824 450.499 357.499 452.387 356.848C454.34 356.132 456.163 354.895 457.855 353.137C458.311 352.681 458.832 352.453 459.418 352.453C460.199 352.453 460.98 352.844 461.762 353.625C462.608 354.341 463.031 355.155 463.031 356.066C463.031 356.978 462.576 357.922 461.664 358.898C460.818 359.875 459.678 360.819 458.246 361.73C456.814 362.577 455.186 363.26 453.363 363.781C451.54 364.367 449.685 364.66 447.797 364.66C445.909 364.66 443.891 364.367 441.742 363.781C439.659 363.195 437.706 362.284 435.883 361.047C434.06 359.745 432.562 358.085 431.391 356.066C430.219 354.048 429.633 351.574 429.633 348.645C429.633 345.52 430.642 341.939 432.66 337.902C433.962 335.363 435.948 333.508 438.617 332.336C441.352 331.099 444.216 330.48 447.211 330.48C449.685 330.48 452.029 330.936 454.242 331.848C456.521 332.759 458.376 334.126 459.809 335.949ZM437.348 347.18L455.121 342.004C454.796 340.311 453.917 339.074 452.484 338.293C451.117 337.447 449.587 337.023 447.895 337.023C446.007 337.023 444.379 337.382 443.012 338.098C441.71 338.749 440.635 339.595 439.789 340.637C438.943 341.678 438.324 342.785 437.934 343.957C437.543 345.129 437.348 346.203 437.348 347.18Z" fill="#342713"/>
<path d="M1.75195 408.951C1.49154 408.593 1.36133 408.268 1.36133 407.975C1.36133 407.486 1.58919 407.063 2.04492 406.705C2.50065 406.347 2.97266 406.168 3.46094 406.168C3.78646 406.168 4.07943 406.282 4.33984 406.51C4.63281 406.705 4.89323 406.965 5.12109 407.291C5.38151 407.617 5.60938 407.958 5.80469 408.316C6.03255 408.642 6.22786 408.951 6.39062 409.244C7.13932 408.593 7.98568 408.04 8.92969 407.584C9.8737 407.128 10.9316 406.9 12.1035 406.9C13.7962 406.9 15.2122 407.177 16.3516 407.73C17.5234 408.251 18.4674 408.951 19.1836 409.83C19.9323 410.709 20.4857 411.718 20.8438 412.857C21.2018 413.964 21.4134 415.104 21.4785 416.275C21.4785 416.959 21.3809 417.691 21.1855 418.473C20.9902 419.254 20.681 420.019 20.2578 420.768C19.8672 421.516 19.3626 422.216 18.7441 422.867C18.1257 423.486 17.3932 424.007 16.5469 424.43C17.5885 425.439 18.5326 426.708 19.3789 428.238C20.2578 429.736 20.9251 431.412 21.3809 433.268C21.3809 433.333 21.3809 433.398 21.3809 433.463C21.4134 433.495 21.4297 433.544 21.4297 433.609C21.4297 434.13 21.2018 434.521 20.7461 434.781C20.3229 435.074 19.8346 435.221 19.2812 435.221C18.9883 435.221 18.7116 435.156 18.4512 435.025C18.1908 434.895 18.028 434.7 17.9629 434.439C17.4095 432.389 16.6934 430.615 15.8145 429.117C14.9355 427.62 13.7474 426.334 12.25 425.26C10.6875 425.26 9.35286 424.967 8.24609 424.381C8.24609 426.334 8.21354 428.189 8.14844 429.947C8.08333 431.705 7.9694 433.17 7.80664 434.342C7.74154 434.83 7.52995 435.188 7.17188 435.416C6.84635 435.676 6.50456 435.807 6.14648 435.807C5.5931 435.807 5.08854 435.66 4.63281 435.367C4.20964 435.074 3.99805 434.667 3.99805 434.146C3.99805 432.779 4.04688 431.184 4.14453 429.361C4.27474 427.538 4.33984 425.634 4.33984 423.648C4.33984 421.76 4.32357 419.889 4.29102 418.033C4.25846 416.178 4.19336 414.518 4.0957 413.053C3.80273 412.434 3.46094 411.767 3.07031 411.051C2.67969 410.335 2.24023 409.635 1.75195 408.951ZM7.85547 412.857C7.95312 414.029 8.01823 415.266 8.05078 416.568C8.11589 417.838 8.16471 419.124 8.19727 420.426C8.75065 420.947 9.36914 421.321 10.0527 421.549C10.7689 421.744 11.6152 421.842 12.5918 421.842C13.5684 421.842 14.3822 421.63 15.0332 421.207C15.6842 420.784 16.2051 420.263 16.5957 419.645C16.9863 419.026 17.263 418.375 17.4258 417.691C17.5885 416.975 17.6699 416.34 17.6699 415.787C17.6048 415.201 17.4583 414.599 17.2305 413.98C17.0026 413.362 16.6771 412.809 16.2539 412.32C15.8307 411.832 15.2936 411.425 14.6426 411.1C14.0241 410.774 13.2754 410.611 12.3965 410.611C11.2572 410.611 10.3294 410.823 9.61328 411.246C8.89714 411.669 8.3112 412.206 7.85547 412.857ZM40.7168 420.475C41.7259 421.874 42.2305 423.095 42.2305 424.137C42.2305 425.243 41.6608 425.976 40.5215 426.334L30.3164 429.361C30.7396 430.012 31.2767 430.517 31.9277 430.875C32.6113 431.233 33.2949 431.412 33.9785 431.412C35.0527 431.412 36.0618 431.249 37.0059 430.924C37.9824 430.566 38.8939 429.947 39.7402 429.068C39.9681 428.84 40.2285 428.727 40.5215 428.727C40.9121 428.727 41.3027 428.922 41.6934 429.312C42.1165 429.671 42.3281 430.077 42.3281 430.533C42.3281 430.989 42.1003 431.461 41.6445 431.949C41.2214 432.438 40.6517 432.91 39.9355 433.365C39.2194 433.788 38.4056 434.13 37.4941 434.391C36.5827 434.684 35.6549 434.83 34.7109 434.83C33.7669 434.83 32.7578 434.684 31.6836 434.391C30.6419 434.098 29.6654 433.642 28.7539 433.023C27.8424 432.372 27.0938 431.542 26.5078 430.533C25.9219 429.524 25.6289 428.287 25.6289 426.822C25.6289 425.26 26.1335 423.469 27.1426 421.451C27.7936 420.182 28.7865 419.254 30.1211 418.668C31.4883 418.049 32.9206 417.74 34.418 417.74C35.6549 417.74 36.8268 417.968 37.9336 418.424C39.0729 418.88 40.0007 419.563 40.7168 420.475ZM29.4863 426.09L38.373 423.502C38.2103 422.656 37.7708 422.037 37.0547 421.646C36.3711 421.223 35.6061 421.012 34.7598 421.012C33.8158 421.012 33.002 421.191 32.3184 421.549C31.6673 421.874 31.1302 422.298 30.707 422.818C30.2839 423.339 29.9746 423.893 29.7793 424.479C29.584 425.064 29.4863 425.602 29.4863 426.09ZM46.1855 419.693C45.9251 419.335 45.7949 419.01 45.7949 418.717C45.7949 418.229 46.0228 417.805 46.4785 417.447C46.9342 417.089 47.4062 416.91 47.8945 416.91C48.2201 416.91 48.513 417.008 48.7734 417.203C49.0664 417.398 49.3105 417.643 49.5059 417.936C49.7012 418.196 49.8802 418.489 50.043 418.814C50.2057 419.107 50.3522 419.368 50.4824 419.596C51.0358 419.4 51.6217 419.238 52.2402 419.107C52.8587 418.977 53.5423 418.912 54.291 418.912C54.9421 418.912 55.6257 418.977 56.3418 419.107C57.0905 419.205 57.8555 419.482 58.6367 419.938C59.2878 419.612 60.0365 419.368 60.8828 419.205C61.7292 419.042 62.6081 418.961 63.5195 418.961C64.138 418.961 64.8379 419.01 65.6191 419.107C66.4004 419.205 67.1328 419.531 67.8164 420.084C68.5 420.605 69.0697 421.435 69.5254 422.574C69.9811 423.681 70.209 425.243 70.209 427.262C70.209 428.238 70.1927 429.182 70.1602 430.094C70.1276 431.005 70.0299 431.819 69.8672 432.535C69.737 433.219 69.5254 433.772 69.2324 434.195C68.9395 434.618 68.5326 434.83 68.0117 434.83C67.5885 434.83 67.1654 434.7 66.7422 434.439C66.3516 434.179 66.1562 433.821 66.1562 433.365C66.1562 432.812 66.2214 432.128 66.3516 431.314C66.4818 430.501 66.5469 429.671 66.5469 428.824C66.5469 427.75 66.5306 426.806 66.498 425.992C66.4655 425.178 66.3353 424.511 66.1074 423.99C65.8796 423.437 65.5378 423.03 65.082 422.77C64.6263 422.509 63.9753 422.379 63.1289 422.379C62.25 422.379 61.4036 422.525 60.5898 422.818L60.7363 423.404C60.834 423.893 60.8991 424.479 60.9316 425.162C60.9967 425.813 61.0293 426.513 61.0293 427.262C61.0293 428.076 61.0293 428.938 61.0293 429.85C61.0293 430.729 60.9805 431.542 60.8828 432.291C60.7852 433.007 60.5898 433.609 60.2969 434.098C60.0365 434.586 59.6296 434.83 59.0762 434.83C58.5228 434.83 58.0508 434.667 57.6602 434.342C57.3021 434.016 57.123 433.593 57.123 433.072C57.123 432.161 57.1719 431.103 57.2695 429.898C57.3672 428.694 57.416 427.604 57.416 426.627C57.416 425.325 57.1882 424.299 56.7324 423.551C56.2767 422.77 55.3815 422.379 54.0469 422.379C53.2982 422.379 52.5658 422.509 51.8496 422.77V422.818C51.8822 423.665 51.8984 424.576 51.8984 425.553C51.931 426.497 51.9473 427.457 51.9473 428.434C51.9473 429.312 51.9473 430.143 51.9473 430.924C51.9473 431.705 51.8822 432.389 51.752 432.975C51.6217 433.561 51.3939 434.033 51.0684 434.391C50.7754 434.749 50.3197 434.928 49.7012 434.928C49.2454 434.863 48.8711 434.7 48.5781 434.439C48.2852 434.179 48.1387 433.837 48.1387 433.414C48.1387 432.438 48.1712 431.412 48.2363 430.338C48.3014 429.264 48.334 428.108 48.334 426.871C48.334 426.253 48.3177 425.699 48.2852 425.211C48.2852 424.723 48.2689 424.251 48.2363 423.795C47.8783 423.242 47.5527 422.623 47.2598 421.939C46.9993 421.223 46.6413 420.475 46.1855 419.693ZM89.4473 420.475C90.4564 421.874 90.9609 423.095 90.9609 424.137C90.9609 425.243 90.3913 425.976 89.252 426.334L79.0469 429.361C79.4701 430.012 80.0072 430.517 80.6582 430.875C81.3418 431.233 82.0254 431.412 82.709 431.412C83.7832 431.412 84.7923 431.249 85.7363 430.924C86.7129 430.566 87.6243 429.947 88.4707 429.068C88.6986 428.84 88.959 428.727 89.252 428.727C89.6426 428.727 90.0332 428.922 90.4238 429.312C90.847 429.671 91.0586 430.077 91.0586 430.533C91.0586 430.989 90.8307 431.461 90.375 431.949C89.9518 432.438 89.3822 432.91 88.666 433.365C87.9499 433.788 87.1361 434.13 86.2246 434.391C85.3132 434.684 84.3854 434.83 83.4414 434.83C82.4974 434.83 81.4883 434.684 80.4141 434.391C79.3724 434.098 78.3958 433.642 77.4844 433.023C76.5729 432.372 75.8242 431.542 75.2383 430.533C74.6523 429.524 74.3594 428.287 74.3594 426.822C74.3594 425.26 74.8639 423.469 75.873 421.451C76.5241 420.182 77.5169 419.254 78.8516 418.668C80.2188 418.049 81.651 417.74 83.1484 417.74C84.3854 417.74 85.5573 417.968 86.6641 418.424C87.8034 418.88 88.7311 419.563 89.4473 420.475ZM78.2168 426.09L87.1035 423.502C86.9408 422.656 86.5013 422.037 85.7852 421.646C85.1016 421.223 84.3366 421.012 83.4902 421.012C82.5462 421.012 81.7324 421.191 81.0488 421.549C80.3978 421.874 79.8607 422.298 79.4375 422.818C79.0143 423.339 78.7051 423.893 78.5098 424.479C78.3145 425.064 78.2168 425.602 78.2168 426.09ZM94.916 419.693C94.6556 419.335 94.5254 419.01 94.5254 418.717C94.5254 418.229 94.7533 417.805 95.209 417.447C95.6647 417.089 96.1367 416.91 96.625 416.91C96.9505 416.91 97.2435 417.008 97.5039 417.203C97.7969 417.398 98.041 417.643 98.2363 417.936C98.4316 418.196 98.6107 418.489 98.7734 418.814C98.9362 419.107 99.0827 419.368 99.2129 419.596C99.7663 419.4 100.352 419.238 100.971 419.107C101.589 418.977 102.273 418.912 103.021 418.912C103.673 418.912 104.356 418.977 105.072 419.107C105.821 419.205 106.586 419.482 107.367 419.938C108.018 419.612 108.767 419.368 109.613 419.205C110.46 419.042 111.339 418.961 112.25 418.961C112.868 418.961 113.568 419.01 114.35 419.107C115.131 419.205 115.863 419.531 116.547 420.084C117.23 420.605 117.8 421.435 118.256 422.574C118.712 423.681 118.939 425.243 118.939 427.262C118.939 428.238 118.923 429.182 118.891 430.094C118.858 431.005 118.76 431.819 118.598 432.535C118.467 433.219 118.256 433.772 117.963 434.195C117.67 434.618 117.263 434.83 116.742 434.83C116.319 434.83 115.896 434.7 115.473 434.439C115.082 434.179 114.887 433.821 114.887 433.365C114.887 432.812 114.952 432.128 115.082 431.314C115.212 430.501 115.277 429.671 115.277 428.824C115.277 427.75 115.261 426.806 115.229 425.992C115.196 425.178 115.066 424.511 114.838 423.99C114.61 423.437 114.268 423.03 113.812 422.77C113.357 422.509 112.706 422.379 111.859 422.379C110.98 422.379 110.134 422.525 109.32 422.818L109.467 423.404C109.564 423.893 109.63 424.479 109.662 425.162C109.727 425.813 109.76 426.513 109.76 427.262C109.76 428.076 109.76 428.938 109.76 429.85C109.76 430.729 109.711 431.542 109.613 432.291C109.516 433.007 109.32 433.609 109.027 434.098C108.767 434.586 108.36 434.83 107.807 434.83C107.253 434.83 106.781 434.667 106.391 434.342C106.033 434.016 105.854 433.593 105.854 433.072C105.854 432.161 105.902 431.103 106 429.898C106.098 428.694 106.146 427.604 106.146 426.627C106.146 425.325 105.919 424.299 105.463 423.551C105.007 422.77 104.112 422.379 102.777 422.379C102.029 422.379 101.296 422.509 100.58 422.77V422.818C100.613 423.665 100.629 424.576 100.629 425.553C100.661 426.497 100.678 427.457 100.678 428.434C100.678 429.312 100.678 430.143 100.678 430.924C100.678 431.705 100.613 432.389 100.482 432.975C100.352 433.561 100.124 434.033 99.7988 434.391C99.5059 434.749 99.0501 434.928 98.4316 434.928C97.9759 434.863 97.6016 434.7 97.3086 434.439C97.0156 434.179 96.8691 433.837 96.8691 433.414C96.8691 432.438 96.9017 431.412 96.9668 430.338C97.0319 429.264 97.0645 428.108 97.0645 426.871C97.0645 426.253 97.0482 425.699 97.0156 425.211C97.0156 424.723 96.9993 424.251 96.9668 423.795C96.6087 423.242 96.2832 422.623 95.9902 421.939C95.7298 421.223 95.3717 420.475 94.916 419.693ZM122.943 409.049C122.683 408.756 122.553 408.43 122.553 408.072C122.553 407.551 122.764 407.128 123.188 406.803C123.643 406.445 124.115 406.266 124.604 406.266C125.092 406.266 125.564 406.526 126.02 407.047C126.475 407.535 126.882 408.121 127.24 408.805C127.598 409.456 127.908 410.09 128.168 410.709C128.428 411.327 128.607 411.751 128.705 411.979L128.852 415.738C128.852 416.389 128.852 417.04 128.852 417.691C128.884 418.31 128.917 418.928 128.949 419.547C129.503 419.156 130.17 418.847 130.951 418.619C131.765 418.359 132.546 418.229 133.295 418.229C134.076 418.229 134.89 418.391 135.736 418.717C136.583 419.042 137.364 419.514 138.08 420.133C138.796 420.751 139.382 421.516 139.838 422.428C140.294 423.339 140.521 424.381 140.521 425.553C140.521 426.855 140.294 428.01 139.838 429.02C139.415 430.029 138.812 430.891 138.031 431.607C137.25 432.291 136.322 432.812 135.248 433.17C134.174 433.528 133.002 433.707 131.732 433.707C131.114 433.707 130.528 433.626 129.975 433.463C129.454 433.268 128.965 433.007 128.51 432.682C128.347 433.105 128.103 433.414 127.777 433.609C127.484 433.805 127.159 433.902 126.801 433.902C126.312 433.902 125.873 433.756 125.482 433.463C125.092 433.17 124.896 432.747 124.896 432.193C124.994 430.501 125.076 428.596 125.141 426.48C125.238 424.332 125.287 422.184 125.287 420.035C125.287 418.701 125.271 417.431 125.238 416.227C125.206 415.022 125.157 413.899 125.092 412.857C124.799 412.239 124.49 411.62 124.164 411.002C123.839 410.383 123.432 409.732 122.943 409.049ZM128.9 425.699C128.9 425.96 128.884 426.22 128.852 426.48C128.852 426.741 128.852 426.985 128.852 427.213C128.949 428.092 129.275 428.857 129.828 429.508C130.414 430.126 131.212 430.436 132.221 430.436C133.62 430.436 134.727 430.029 135.541 429.215C136.387 428.401 136.811 427.376 136.811 426.139C136.778 425.39 136.648 424.739 136.42 424.186C136.192 423.632 135.915 423.176 135.59 422.818C135.264 422.428 134.906 422.135 134.516 421.939C134.125 421.744 133.751 421.646 133.393 421.646C131.895 421.744 130.821 422.151 130.17 422.867C129.519 423.551 129.096 424.495 128.9 425.699ZM159.76 420.475C160.769 421.874 161.273 423.095 161.273 424.137C161.273 425.243 160.704 425.976 159.564 426.334L149.359 429.361C149.783 430.012 150.32 430.517 150.971 430.875C151.654 431.233 152.338 431.412 153.021 431.412C154.096 431.412 155.105 431.249 156.049 430.924C157.025 430.566 157.937 429.947 158.783 429.068C159.011 428.84 159.271 428.727 159.564 428.727C159.955 428.727 160.346 428.922 160.736 429.312C161.16 429.671 161.371 430.077 161.371 430.533C161.371 430.989 161.143 431.461 160.688 431.949C160.264 432.438 159.695 432.91 158.979 433.365C158.262 433.788 157.449 434.13 156.537 434.391C155.626 434.684 154.698 434.83 153.754 434.83C152.81 434.83 151.801 434.684 150.727 434.391C149.685 434.098 148.708 433.642 147.797 433.023C146.885 432.372 146.137 431.542 145.551 430.533C144.965 429.524 144.672 428.287 144.672 426.822C144.672 425.26 145.176 423.469 146.186 421.451C146.837 420.182 147.829 419.254 149.164 418.668C150.531 418.049 151.964 417.74 153.461 417.74C154.698 417.74 155.87 417.968 156.977 418.424C158.116 418.88 159.044 419.563 159.76 420.475ZM148.529 426.09L157.416 423.502C157.253 422.656 156.814 422.037 156.098 421.646C155.414 421.223 154.649 421.012 153.803 421.012C152.859 421.012 152.045 421.191 151.361 421.549C150.71 421.874 150.173 422.298 149.75 422.818C149.327 423.339 149.018 423.893 148.822 424.479C148.627 425.064 148.529 425.602 148.529 426.09ZM171.527 422.33C172.829 421.028 174.376 419.986 176.166 419.205C177.956 418.391 179.844 417.936 181.83 417.838C182.318 417.903 182.676 418.131 182.904 418.521C183.165 418.88 183.295 419.27 183.295 419.693C183.295 420.051 183.197 420.393 183.002 420.719C182.839 421.012 182.579 421.158 182.221 421.158C180.072 421.646 178.184 422.265 176.557 423.014C174.962 423.762 173.676 424.755 172.699 425.992C172.699 426.643 172.732 427.294 172.797 427.945C172.895 428.564 172.943 429.215 172.943 429.898C172.943 430.745 172.911 431.591 172.846 432.438C172.813 433.284 172.715 434.114 172.553 434.928C172.52 435.351 172.309 435.644 171.918 435.807C171.527 435.969 171.104 436.051 170.648 436.051C170.193 436.051 169.77 435.937 169.379 435.709C169.021 435.514 168.842 435.221 168.842 434.83C168.939 433.919 169.021 432.991 169.086 432.047C169.184 431.07 169.232 430.11 169.232 429.166C169.232 427.896 169.07 426.839 168.744 425.992C168.451 425.146 168.174 424.446 167.914 423.893C167.816 423.73 167.621 423.502 167.328 423.209C167.068 422.883 166.791 422.558 166.498 422.232C166.205 421.874 165.945 421.516 165.717 421.158C165.489 420.8 165.375 420.491 165.375 420.23C165.375 419.677 165.587 419.205 166.01 418.814C166.465 418.391 166.97 418.18 167.523 418.18C168.077 418.18 168.728 418.587 169.477 419.4C170.225 420.214 170.909 421.191 171.527 422.33ZM215.619 420.475C216.628 421.874 217.133 423.095 217.133 424.137C217.133 425.243 216.563 425.976 215.424 426.334L205.219 429.361C205.642 430.012 206.179 430.517 206.83 430.875C207.514 431.233 208.197 431.412 208.881 431.412C209.955 431.412 210.964 431.249 211.908 430.924C212.885 430.566 213.796 429.947 214.643 429.068C214.87 428.84 215.131 428.727 215.424 428.727C215.814 428.727 216.205 428.922 216.596 429.312C217.019 429.671 217.23 430.077 217.23 430.533C217.23 430.989 217.003 431.461 216.547 431.949C216.124 432.438 215.554 432.91 214.838 433.365C214.122 433.788 213.308 434.13 212.396 434.391C211.485 434.684 210.557 434.83 209.613 434.83C208.669 434.83 207.66 434.684 206.586 434.391C205.544 434.098 204.568 433.642 203.656 433.023C202.745 432.372 201.996 431.542 201.41 430.533C200.824 429.524 200.531 428.287 200.531 426.822C200.531 425.26 201.036 423.469 202.045 421.451C202.696 420.182 203.689 419.254 205.023 418.668C206.391 418.049 207.823 417.74 209.32 417.74C210.557 417.74 211.729 417.968 212.836 418.424C213.975 418.88 214.903 419.563 215.619 420.475ZM204.389 426.09L213.275 423.502C213.113 422.656 212.673 422.037 211.957 421.646C211.273 421.223 210.508 421.012 209.662 421.012C208.718 421.012 207.904 421.191 207.221 421.549C206.57 421.874 206.033 422.298 205.609 422.818C205.186 423.339 204.877 423.893 204.682 424.479C204.486 425.064 204.389 425.602 204.389 426.09ZM228.217 432.193C229.096 430.045 230.072 427.701 231.146 425.162C232.221 422.59 233.327 419.986 234.467 417.35C234.532 417.024 234.678 416.796 234.906 416.666C235.134 416.536 235.378 416.471 235.639 416.471C236.225 416.471 236.762 416.666 237.25 417.057C237.771 417.415 238.031 417.789 238.031 418.18C238.031 418.245 238.015 418.294 237.982 418.326C237.982 418.359 237.982 418.391 237.982 418.424C237.462 419.596 236.973 420.768 236.518 421.939C236.062 423.111 235.59 424.316 235.102 425.553C234.613 426.79 234.076 428.076 233.49 429.41C232.904 430.745 232.221 432.161 231.439 433.658C230.886 434.798 230.316 435.579 229.73 436.002C229.177 436.458 228.64 436.686 228.119 436.686C227.37 436.686 226.736 436.36 226.215 435.709C225.694 435.058 225.352 434.374 225.189 433.658L220.6 417.936C220.567 417.87 220.551 417.789 220.551 417.691C220.551 417.268 220.746 416.926 221.137 416.666C221.527 416.406 221.983 416.275 222.504 416.275C222.862 416.275 223.22 416.373 223.578 416.568C223.936 416.731 224.18 417.024 224.311 417.447C224.636 418.489 224.962 419.645 225.287 420.914C225.645 422.151 225.987 423.421 226.312 424.723C226.671 426.025 227.012 427.327 227.338 428.629C227.663 429.898 227.956 431.087 228.217 432.193ZM256.342 420.475C257.351 421.874 257.855 423.095 257.855 424.137C257.855 425.243 257.286 425.976 256.146 426.334L245.941 429.361C246.365 430.012 246.902 430.517 247.553 430.875C248.236 431.233 248.92 431.412 249.604 431.412C250.678 431.412 251.687 431.249 252.631 430.924C253.607 430.566 254.519 429.947 255.365 429.068C255.593 428.84 255.854 428.727 256.146 428.727C256.537 428.727 256.928 428.922 257.318 429.312C257.742 429.671 257.953 430.077 257.953 430.533C257.953 430.989 257.725 431.461 257.27 431.949C256.846 432.438 256.277 432.91 255.561 433.365C254.844 433.788 254.031 434.13 253.119 434.391C252.208 434.684 251.28 434.83 250.336 434.83C249.392 434.83 248.383 434.684 247.309 434.391C246.267 434.098 245.29 433.642 244.379 433.023C243.467 432.372 242.719 431.542 242.133 430.533C241.547 429.524 241.254 428.287 241.254 426.822C241.254 425.26 241.758 423.469 242.768 421.451C243.419 420.182 244.411 419.254 245.746 418.668C247.113 418.049 248.546 417.74 250.043 417.74C251.28 417.74 252.452 417.968 253.559 418.424C254.698 418.88 255.626 419.563 256.342 420.475ZM245.111 426.09L253.998 423.502C253.835 422.656 253.396 422.037 252.68 421.646C251.996 421.223 251.231 421.012 250.385 421.012C249.441 421.012 248.627 421.191 247.943 421.549C247.292 421.874 246.755 422.298 246.332 422.818C245.909 423.339 245.6 423.893 245.404 424.479C245.209 425.064 245.111 425.602 245.111 426.09ZM268.109 422.33C269.411 421.028 270.958 419.986 272.748 419.205C274.538 418.391 276.426 417.936 278.412 417.838C278.9 417.903 279.258 418.131 279.486 418.521C279.747 418.88 279.877 419.27 279.877 419.693C279.877 420.051 279.779 420.393 279.584 420.719C279.421 421.012 279.161 421.158 278.803 421.158C276.654 421.646 274.766 422.265 273.139 423.014C271.544 423.762 270.258 424.755 269.281 425.992C269.281 426.643 269.314 427.294 269.379 427.945C269.477 428.564 269.525 429.215 269.525 429.898C269.525 430.745 269.493 431.591 269.428 432.438C269.395 433.284 269.298 434.114 269.135 434.928C269.102 435.351 268.891 435.644 268.5 435.807C268.109 435.969 267.686 436.051 267.23 436.051C266.775 436.051 266.352 435.937 265.961 435.709C265.603 435.514 265.424 435.221 265.424 434.83C265.521 433.919 265.603 432.991 265.668 432.047C265.766 431.07 265.814 430.11 265.814 429.166C265.814 427.896 265.652 426.839 265.326 425.992C265.033 425.146 264.757 424.446 264.496 423.893C264.398 423.73 264.203 423.502 263.91 423.209C263.65 422.883 263.373 422.558 263.08 422.232C262.787 421.874 262.527 421.516 262.299 421.158C262.071 420.8 261.957 420.491 261.957 420.23C261.957 419.677 262.169 419.205 262.592 418.814C263.048 418.391 263.552 418.18 264.105 418.18C264.659 418.18 265.31 418.587 266.059 419.4C266.807 420.214 267.491 421.191 268.109 422.33ZM293.158 442.154C292.214 442.903 291.124 443.277 289.887 443.277C288.812 443.277 287.738 443.017 286.664 442.496C285.622 441.975 284.792 441.275 284.174 440.396C284.044 440.266 283.979 440.087 283.979 439.859C283.979 439.436 284.125 438.98 284.418 438.492C284.743 438.036 285.118 437.809 285.541 437.809C285.704 437.809 285.867 437.857 286.029 437.955C286.615 438.476 287.217 438.883 287.836 439.176C288.487 439.469 289.105 439.615 289.691 439.615C290.766 439.615 291.628 438.932 292.279 437.564C292.963 436.23 293.5 434.26 293.891 431.656C293.402 431.819 292.898 431.949 292.377 432.047C291.889 432.112 291.368 432.145 290.814 432.145C290.326 432.145 289.659 432.112 288.812 432.047C287.966 431.982 287.12 431.689 286.273 431.168C285.427 430.647 284.695 429.833 284.076 428.727C283.458 427.587 283.148 425.943 283.148 423.795C283.148 423.209 283.165 422.607 283.197 421.988C283.23 421.37 283.262 420.768 283.295 420.182C283.36 419.563 283.425 418.993 283.49 418.473C283.555 417.919 283.62 417.447 283.686 417.057C283.751 416.536 283.946 416.161 284.271 415.934C284.597 415.706 284.955 415.592 285.346 415.592C285.801 415.592 286.225 415.722 286.615 415.982C287.006 416.243 287.201 416.601 287.201 417.057C287.201 417.643 287.136 418.359 287.006 419.205C286.876 420.051 286.811 420.93 286.811 421.842C286.811 423.111 286.843 424.186 286.908 425.064C286.973 425.911 287.152 426.611 287.445 427.164C287.738 427.685 288.161 428.059 288.715 428.287C289.301 428.515 290.082 428.629 291.059 428.629C291.645 428.629 292.165 428.548 292.621 428.385C293.109 428.222 293.679 428.059 294.33 427.896C294.525 425.455 294.623 422.997 294.623 420.523C294.623 419.417 294.607 418.359 294.574 417.35C294.542 416.308 294.493 415.364 294.428 414.518C294.428 414.16 294.607 413.867 294.965 413.639C295.323 413.378 295.762 413.248 296.283 413.248C296.674 413.248 297.048 413.329 297.406 413.492C297.764 413.622 298.008 413.867 298.139 414.225C298.204 414.973 298.253 415.771 298.285 416.617C298.318 417.431 298.334 418.261 298.334 419.107C298.334 421.386 298.22 423.746 297.992 426.188C297.797 428.596 297.471 430.875 297.016 433.023C296.592 435.172 296.055 437.06 295.404 438.688C294.753 440.315 294.005 441.471 293.158 442.154ZM305.17 428.58C305.202 427.929 305.219 427.294 305.219 426.676C305.219 426.057 305.235 425.455 305.268 424.869L305.414 421.451H303.803C303.347 421.451 302.94 421.451 302.582 421.451C302.257 421.419 301.964 421.354 301.703 421.256C301.443 421.126 301.247 420.93 301.117 420.67C300.987 420.41 300.922 420.035 300.922 419.547C300.922 419.156 301.003 418.814 301.166 418.521C301.361 418.196 301.654 418.033 302.045 418.033C302.436 418.033 302.924 418.049 303.51 418.082C304.128 418.115 304.812 418.115 305.561 418.082C305.561 416.292 305.528 414.518 305.463 412.76C305.398 411.002 305.365 409.13 305.365 407.145C305.365 406.591 305.561 406.201 305.951 405.973C306.342 405.712 306.765 405.582 307.221 405.582C307.904 405.582 308.393 405.842 308.686 406.363C308.979 406.852 309.174 407.454 309.271 408.17C309.369 408.886 309.385 409.635 309.32 410.416C309.288 411.165 309.271 411.783 309.271 412.271C309.271 414.322 309.223 416.243 309.125 418.033C310.688 418.033 312.169 418.017 313.568 417.984C315.001 417.919 316.107 417.838 316.889 417.74C317.279 417.805 317.556 418.017 317.719 418.375C317.914 418.701 318.012 419.059 318.012 419.449C318.012 420.003 317.882 420.41 317.621 420.67C317.393 420.93 316.938 421.126 316.254 421.256C315.603 421.386 314.691 421.451 313.52 421.451C312.38 421.451 310.883 421.451 309.027 421.451C308.962 422.525 308.913 423.632 308.881 424.771C308.881 425.911 308.881 427.115 308.881 428.385C308.881 429.654 309.109 430.631 309.564 431.314C310.02 431.965 310.606 432.291 311.322 432.291C312.104 432.291 312.803 432.014 313.422 431.461C314.04 430.875 314.643 430.11 315.229 429.166C315.424 428.84 315.749 428.678 316.205 428.678C316.661 428.678 317.068 428.84 317.426 429.166C317.816 429.492 318.012 429.882 318.012 430.338C318.012 430.989 317.784 431.64 317.328 432.291C316.872 432.91 316.286 433.479 315.57 434C314.854 434.521 314.057 434.944 313.178 435.27C312.299 435.595 311.452 435.758 310.639 435.758C309.63 435.758 308.767 435.546 308.051 435.123C307.367 434.7 306.814 434.146 306.391 433.463C305.967 432.779 305.658 432.014 305.463 431.168C305.268 430.289 305.17 429.426 305.17 428.58ZM322.65 412.076C322.423 411.816 322.309 411.49 322.309 411.1C322.309 410.611 322.488 410.188 322.846 409.83C323.204 409.439 323.66 409.244 324.213 409.244C325.059 409.244 325.759 409.651 326.312 410.465C326.866 411.246 327.289 412.174 327.582 413.248C327.908 414.322 328.135 415.429 328.266 416.568C328.428 417.708 328.542 418.619 328.607 419.303C329.128 419.173 329.649 419.059 330.17 418.961C330.691 418.863 331.26 418.814 331.879 418.814C332.4 418.814 333.083 418.863 333.93 418.961C334.809 419.026 335.655 419.335 336.469 419.889C337.283 420.41 337.982 421.256 338.568 422.428C339.154 423.6 339.447 425.276 339.447 427.457C339.447 428.499 339.431 429.492 339.398 430.436C339.366 431.38 339.268 432.226 339.105 432.975C338.975 433.723 338.764 434.309 338.471 434.732C338.178 435.188 337.771 435.416 337.25 435.416C336.827 435.416 336.404 435.286 335.98 435.025C335.59 434.765 335.395 434.407 335.395 433.951C335.395 433.398 335.46 432.698 335.59 431.852C335.72 430.973 335.785 430.061 335.785 429.117C335.785 427.913 335.753 426.887 335.688 426.041C335.622 425.162 335.46 424.446 335.199 423.893C334.939 423.339 334.532 422.949 333.979 422.721C333.425 422.46 332.66 422.33 331.684 422.33C331.521 422.33 331.358 422.346 331.195 422.379C331.033 422.379 330.87 422.379 330.707 422.379L328.754 422.867C328.754 424.658 328.721 426.464 328.656 428.287C328.591 430.11 328.477 431.803 328.314 433.365C328.249 433.919 328.021 434.342 327.631 434.635C327.24 434.96 326.817 435.123 326.361 435.123C325.906 435.123 325.515 434.993 325.189 434.732C324.864 434.505 324.701 434.146 324.701 433.658C324.701 431.965 324.75 430.224 324.848 428.434C324.978 426.643 325.043 424.885 325.043 423.16C325.043 422.118 325.043 421.142 325.043 420.23C325.076 419.319 325.027 418.44 324.896 417.594C324.766 416.715 324.522 415.836 324.164 414.957C323.839 414.046 323.334 413.085 322.65 412.076ZM344.818 433.365C344.981 432.096 345.095 430.777 345.16 429.41C345.258 428.043 345.307 426.676 345.307 425.309V418.912C345.307 418.521 345.486 418.229 345.844 418.033C346.202 417.805 346.609 417.691 347.064 417.691C347.455 417.691 347.829 417.773 348.188 417.936C348.546 418.098 348.79 418.359 348.92 418.717C348.952 419.628 348.969 420.686 348.969 421.891C349.001 423.095 349.018 424.348 349.018 425.65C349.018 427.018 348.969 428.401 348.871 429.801C348.773 431.168 348.692 432.486 348.627 433.756C348.529 434.309 348.301 434.716 347.943 434.977C347.585 435.27 347.195 435.416 346.771 435.416C346.316 435.416 345.876 435.27 345.453 434.977C345.03 434.684 344.818 434.228 344.818 433.609V433.365ZM349.799 410.904C349.636 411.718 349.311 412.337 348.822 412.76C348.334 413.183 347.748 413.395 347.064 413.395C346.804 413.395 346.495 413.362 346.137 413.297C345.779 413.199 345.437 413.053 345.111 412.857C344.818 412.63 344.558 412.337 344.33 411.979C344.102 411.588 343.988 411.1 343.988 410.514C343.988 409.472 344.281 408.723 344.867 408.268C345.453 407.779 346.218 407.535 347.162 407.535C348.106 407.535 348.79 407.828 349.213 408.414C349.636 409 349.848 409.667 349.848 410.416C349.848 410.481 349.831 410.562 349.799 410.66C349.799 410.758 349.799 410.839 349.799 410.904ZM354.584 419.693C354.324 419.335 354.193 419.01 354.193 418.717C354.193 418.229 354.421 417.805 354.877 417.447C355.333 417.089 355.805 416.91 356.293 416.91C356.618 416.91 356.928 417.024 357.221 417.252C357.514 417.447 357.758 417.691 357.953 417.984C358.181 418.277 358.376 418.603 358.539 418.961C358.734 419.286 358.897 419.579 359.027 419.84C359.646 419.612 360.378 419.417 361.225 419.254C362.104 419.059 363.031 418.961 364.008 418.961C364.431 418.961 364.952 418.993 365.57 419.059C366.189 419.091 366.791 419.254 367.377 419.547C367.995 419.807 368.549 420.247 369.037 420.865C369.558 421.451 369.949 422.298 370.209 423.404C370.339 423.99 370.404 424.706 370.404 425.553C370.437 426.399 370.469 427.278 370.502 428.189C370.469 428.971 370.453 429.768 370.453 430.582C370.453 431.363 370.388 432.079 370.258 432.73C370.16 433.349 369.981 433.854 369.721 434.244C369.46 434.635 369.07 434.83 368.549 434.83C367.995 434.83 367.523 434.667 367.133 434.342C366.775 434.016 366.596 433.593 366.596 433.072C366.596 432.128 366.645 431.054 366.742 429.85C366.84 428.645 366.889 427.555 366.889 426.578C366.889 425.699 366.807 424.983 366.645 424.43C366.514 423.876 366.319 423.453 366.059 423.16C365.798 422.835 365.456 422.623 365.033 422.525C364.61 422.428 364.138 422.379 363.617 422.379C363.064 422.379 362.494 422.46 361.908 422.623C361.355 422.753 360.801 422.9 360.248 423.062C360.281 423.681 360.297 424.316 360.297 424.967C360.329 425.618 360.346 426.301 360.346 427.018C360.346 428.157 360.346 429.215 360.346 430.191C360.346 431.135 360.281 431.965 360.15 432.682C360.053 433.365 359.841 433.902 359.516 434.293C359.19 434.716 358.718 434.928 358.1 434.928C357.644 434.863 357.27 434.7 356.977 434.439C356.684 434.179 356.537 433.837 356.537 433.414C356.537 432.438 356.57 431.412 356.635 430.338C356.7 429.264 356.732 428.108 356.732 426.871C356.732 426.253 356.716 425.699 356.684 425.211C356.684 424.723 356.667 424.251 356.635 423.795C356.277 423.242 355.951 422.623 355.658 421.939C355.398 421.223 355.04 420.475 354.584 419.693ZM382.709 440.787H383.002C384.141 440.787 385.118 440.445 385.932 439.762C386.778 439.111 387.201 438.215 387.201 437.076C387.201 436.295 387.071 435.644 386.811 435.123C386.55 434.602 386.225 434.195 385.834 433.902C385.443 433.577 385.036 433.365 384.613 433.268C384.223 433.137 383.881 433.072 383.588 433.072C382.383 433.137 381.342 433.512 380.463 434.195C379.617 434.911 379.193 435.937 379.193 437.271C379.193 438.215 379.503 439.029 380.121 439.713C380.772 440.396 381.635 440.755 382.709 440.787ZM382.904 444.01C382.774 444.01 382.644 444.01 382.514 444.01C382.416 444.042 382.318 444.059 382.221 444.059C381.212 444.059 380.284 443.88 379.438 443.521C378.624 443.163 377.908 442.675 377.289 442.057C376.703 441.471 376.247 440.771 375.922 439.957C375.596 439.143 375.434 438.297 375.434 437.418C375.434 436.507 375.58 435.66 375.873 434.879C376.166 434.13 376.557 433.447 377.045 432.828C377.533 432.177 378.087 431.624 378.705 431.168C379.356 430.712 380.023 430.354 380.707 430.094C380.479 429.671 380.3 429.215 380.17 428.727C380.04 428.238 379.975 427.717 379.975 427.164C379.975 426.936 379.991 426.725 380.023 426.529C380.056 426.301 380.105 426.057 380.17 425.797C379.096 425.374 378.184 424.706 377.436 423.795C376.687 422.883 376.312 421.76 376.312 420.426C376.312 419.612 376.475 418.749 376.801 417.838C377.159 416.894 377.696 416.048 378.412 415.299C378.835 414.876 379.21 414.42 379.535 413.932C379.861 413.443 380.007 412.646 379.975 411.539V410.514C379.975 410.09 380.137 409.781 380.463 409.586C380.788 409.358 381.179 409.244 381.635 409.244C382.481 409.244 383.051 409.472 383.344 409.928C383.637 410.351 383.783 410.937 383.783 411.686C383.783 412.434 383.702 413.102 383.539 413.688C384.32 413.785 385.053 414.046 385.736 414.469C386.452 414.859 387.071 415.348 387.592 415.934C388.113 416.487 388.52 417.105 388.812 417.789C389.138 418.473 389.301 419.156 389.301 419.84C389.301 420.751 389.138 421.581 388.812 422.33C388.487 423.079 388.064 423.73 387.543 424.283C387.022 424.804 386.436 425.243 385.785 425.602C385.134 425.927 384.483 426.139 383.832 426.236C383.799 426.399 383.767 426.562 383.734 426.725C383.734 426.855 383.734 427.001 383.734 427.164C383.734 427.62 383.799 428.059 383.93 428.482C384.06 428.873 384.239 429.247 384.467 429.605C385.183 429.703 385.915 429.915 386.664 430.24C387.413 430.566 388.096 431.021 388.715 431.607C389.366 432.161 389.887 432.844 390.277 433.658C390.701 434.472 390.912 435.416 390.912 436.49C390.912 437.76 390.717 438.85 390.326 439.762C389.936 440.673 389.382 441.422 388.666 442.008C387.95 442.594 387.104 443.049 386.127 443.375C385.15 443.701 384.076 443.912 382.904 444.01ZM381.977 416.666L380.854 417.936C380.593 418.261 380.414 418.619 380.316 419.01C380.219 419.4 380.17 419.856 380.17 420.377C380.17 421.028 380.43 421.614 380.951 422.135C381.472 422.656 382.221 422.916 383.197 422.916C383.425 422.916 383.669 422.851 383.93 422.721C384.19 422.558 384.434 422.363 384.662 422.135C384.89 421.874 385.085 421.598 385.248 421.305C385.411 420.979 385.492 420.637 385.492 420.279C385.492 419.238 385.183 418.44 384.564 417.887C383.979 417.333 383.116 416.926 381.977 416.666ZM416.889 442.154C415.945 442.903 414.854 443.277 413.617 443.277C412.543 443.277 411.469 443.017 410.395 442.496C409.353 441.975 408.523 441.275 407.904 440.396C407.774 440.266 407.709 440.087 407.709 439.859C407.709 439.436 407.855 438.98 408.148 438.492C408.474 438.036 408.848 437.809 409.271 437.809C409.434 437.809 409.597 437.857 409.76 437.955C410.346 438.476 410.948 438.883 411.566 439.176C412.217 439.469 412.836 439.615 413.422 439.615C414.496 439.615 415.359 438.932 416.01 437.564C416.693 436.23 417.23 434.26 417.621 431.656C417.133 431.819 416.628 431.949 416.107 432.047C415.619 432.112 415.098 432.145 414.545 432.145C414.057 432.145 413.389 432.112 412.543 432.047C411.697 431.982 410.85 431.689 410.004 431.168C409.158 430.647 408.425 429.833 407.807 428.727C407.188 427.587 406.879 425.943 406.879 423.795C406.879 423.209 406.895 422.607 406.928 421.988C406.96 421.37 406.993 420.768 407.025 420.182C407.09 419.563 407.156 418.993 407.221 418.473C407.286 417.919 407.351 417.447 407.416 417.057C407.481 416.536 407.676 416.161 408.002 415.934C408.327 415.706 408.686 415.592 409.076 415.592C409.532 415.592 409.955 415.722 410.346 415.982C410.736 416.243 410.932 416.601 410.932 417.057C410.932 417.643 410.867 418.359 410.736 419.205C410.606 420.051 410.541 420.93 410.541 421.842C410.541 423.111 410.574 424.186 410.639 425.064C410.704 425.911 410.883 426.611 411.176 427.164C411.469 427.685 411.892 428.059 412.445 428.287C413.031 428.515 413.812 428.629 414.789 428.629C415.375 428.629 415.896 428.548 416.352 428.385C416.84 428.222 417.41 428.059 418.061 427.896C418.256 425.455 418.354 422.997 418.354 420.523C418.354 419.417 418.337 418.359 418.305 417.35C418.272 416.308 418.223 415.364 418.158 414.518C418.158 414.16 418.337 413.867 418.695 413.639C419.053 413.378 419.493 413.248 420.014 413.248C420.404 413.248 420.779 413.329 421.137 413.492C421.495 413.622 421.739 413.867 421.869 414.225C421.934 414.973 421.983 415.771 422.016 416.617C422.048 417.431 422.064 418.261 422.064 419.107C422.064 421.386 421.951 423.746 421.723 426.188C421.527 428.596 421.202 430.875 420.746 433.023C420.323 435.172 419.786 437.06 419.135 438.688C418.484 440.315 417.735 441.471 416.889 442.154ZM433.002 418.814C433.132 418.717 433.279 418.635 433.441 418.57C433.604 418.473 433.783 418.424 433.979 418.424C434.825 418.489 435.704 418.717 436.615 419.107C437.527 419.498 438.357 420.051 439.105 420.768C439.854 421.484 440.473 422.346 440.961 423.355C441.449 424.365 441.693 425.52 441.693 426.822C441.661 428.189 441.417 429.394 440.961 430.436C440.538 431.445 439.952 432.291 439.203 432.975C438.487 433.658 437.624 434.163 436.615 434.488C435.639 434.846 434.564 435.025 433.393 435.025C432.481 435.025 431.553 434.846 430.609 434.488C429.665 434.163 428.819 433.674 428.07 433.023C427.322 432.34 426.703 431.526 426.215 430.582C425.727 429.638 425.482 428.548 425.482 427.311C425.482 426.204 425.694 425.13 426.117 424.088C426.54 423.014 427.061 422.07 427.68 421.256C428.331 420.442 429.031 419.791 429.779 419.303C430.561 418.814 431.293 418.57 431.977 418.57C432.335 418.57 432.676 418.652 433.002 418.814ZM433.295 421.695C432.709 421.988 432.172 422.298 431.684 422.623C431.228 422.916 430.821 423.274 430.463 423.697C430.137 424.12 429.877 424.641 429.682 425.26C429.519 425.878 429.438 426.643 429.438 427.555C429.438 428.368 429.568 429.036 429.828 429.557C430.121 430.077 430.479 430.501 430.902 430.826C431.358 431.119 431.846 431.331 432.367 431.461C432.921 431.559 433.458 431.607 433.979 431.607C435.085 431.607 436.013 431.168 436.762 430.289C437.51 429.41 437.885 428.336 437.885 427.066C437.885 426.09 437.738 425.292 437.445 424.674C437.185 424.055 436.827 423.567 436.371 423.209C435.948 422.818 435.46 422.525 434.906 422.33C434.353 422.102 433.816 421.891 433.295 421.695ZM445.99 428.58C445.99 427.473 445.99 426.48 445.99 425.602C446.023 424.69 446.039 423.827 446.039 423.014C446.072 422.167 446.088 421.305 446.088 420.426C446.12 419.514 446.153 418.489 446.186 417.35C446.186 416.699 446.413 416.227 446.869 415.934C447.357 415.608 447.862 415.445 448.383 415.445C448.773 415.445 449.115 415.592 449.408 415.885C449.734 416.145 449.896 416.536 449.896 417.057C449.896 418.196 449.88 419.238 449.848 420.182C449.848 421.093 449.831 422.005 449.799 422.916C449.766 423.795 449.734 424.69 449.701 425.602C449.701 426.513 449.701 427.522 449.701 428.629C449.701 429.215 449.799 429.719 449.994 430.143C450.222 430.566 450.499 430.924 450.824 431.217C451.182 431.51 451.557 431.721 451.947 431.852C452.338 431.982 452.712 432.047 453.07 432.047C453.754 432.047 454.519 431.786 455.365 431.266C456.244 430.712 456.993 430.012 457.611 429.166C457.546 427.962 457.497 426.871 457.465 425.895C457.432 424.885 457.416 423.958 457.416 423.111C457.416 422.232 457.416 421.321 457.416 420.377C457.416 419.433 457.481 418.587 457.611 417.838C457.742 417.057 457.969 416.422 458.295 415.934C458.62 415.445 459.125 415.201 459.809 415.201C460.232 415.266 460.622 415.445 460.98 415.738C461.339 415.999 461.518 416.373 461.518 416.861C461.42 418.033 461.322 419.303 461.225 420.67C461.127 422.005 461.078 423.437 461.078 424.967C461.078 425.748 461.094 426.578 461.127 427.457C461.16 428.303 461.225 429.166 461.322 430.045C461.452 430.37 461.648 430.761 461.908 431.217C462.201 431.673 462.478 432.128 462.738 432.584C463.031 433.04 463.275 433.479 463.471 433.902C463.666 434.293 463.764 434.602 463.764 434.83C463.764 435.351 463.552 435.79 463.129 436.148C462.706 436.507 462.25 436.686 461.762 436.686C461.469 436.686 461.16 436.555 460.834 436.295C460.541 436.067 460.264 435.774 460.004 435.416C459.743 435.058 459.499 434.684 459.271 434.293C459.076 433.935 458.93 433.609 458.832 433.316C457.986 434.033 457.009 434.618 455.902 435.074C454.796 435.53 453.64 435.758 452.436 435.758C451.394 435.758 450.466 435.546 449.652 435.123C448.871 434.7 448.204 434.146 447.65 433.463C447.097 432.779 446.674 432.014 446.381 431.168C446.12 430.289 445.99 429.426 445.99 428.58ZM480.463 419.693C480.202 419.335 480.072 419.01 480.072 418.717C480.072 418.229 480.3 417.805 480.756 417.447C481.212 417.089 481.684 416.91 482.172 416.91C482.497 416.91 482.807 417.024 483.1 417.252C483.393 417.447 483.637 417.691 483.832 417.984C484.06 418.277 484.255 418.603 484.418 418.961C484.613 419.286 484.776 419.579 484.906 419.84C485.525 419.612 486.257 419.417 487.104 419.254C487.982 419.059 488.91 418.961 489.887 418.961C490.31 418.961 490.831 418.993 491.449 419.059C492.068 419.091 492.67 419.254 493.256 419.547C493.874 419.807 494.428 420.247 494.916 420.865C495.437 421.451 495.827 422.298 496.088 423.404C496.218 423.99 496.283 424.706 496.283 425.553C496.316 426.399 496.348 427.278 496.381 428.189C496.348 428.971 496.332 429.768 496.332 430.582C496.332 431.363 496.267 432.079 496.137 432.73C496.039 433.349 495.86 433.854 495.6 434.244C495.339 434.635 494.949 434.83 494.428 434.83C493.874 434.83 493.402 434.667 493.012 434.342C492.654 434.016 492.475 433.593 492.475 433.072C492.475 432.128 492.523 431.054 492.621 429.85C492.719 428.645 492.768 427.555 492.768 426.578C492.768 425.699 492.686 424.983 492.523 424.43C492.393 423.876 492.198 423.453 491.938 423.16C491.677 422.835 491.335 422.623 490.912 422.525C490.489 422.428 490.017 422.379 489.496 422.379C488.943 422.379 488.373 422.46 487.787 422.623C487.234 422.753 486.68 422.9 486.127 423.062C486.16 423.681 486.176 424.316 486.176 424.967C486.208 425.618 486.225 426.301 486.225 427.018C486.225 428.157 486.225 429.215 486.225 430.191C486.225 431.135 486.16 431.965 486.029 432.682C485.932 433.365 485.72 433.902 485.395 434.293C485.069 434.716 484.597 434.928 483.979 434.928C483.523 434.863 483.148 434.7 482.855 434.439C482.562 434.179 482.416 433.837 482.416 433.414C482.416 432.438 482.449 431.412 482.514 430.338C482.579 429.264 482.611 428.108 482.611 426.871C482.611 426.253 482.595 425.699 482.562 425.211C482.562 424.723 482.546 424.251 482.514 423.795C482.156 423.242 481.83 422.623 481.537 421.939C481.277 421.223 480.919 420.475 480.463 419.693ZM516.205 420.475C517.214 421.874 517.719 423.095 517.719 424.137C517.719 425.243 517.149 425.976 516.01 426.334L505.805 429.361C506.228 430.012 506.765 430.517 507.416 430.875C508.1 431.233 508.783 431.412 509.467 431.412C510.541 431.412 511.55 431.249 512.494 430.924C513.471 430.566 514.382 429.947 515.229 429.068C515.456 428.84 515.717 428.727 516.01 428.727C516.4 428.727 516.791 428.922 517.182 429.312C517.605 429.671 517.816 430.077 517.816 430.533C517.816 430.989 517.589 431.461 517.133 431.949C516.71 432.438 516.14 432.91 515.424 433.365C514.708 433.788 513.894 434.13 512.982 434.391C512.071 434.684 511.143 434.83 510.199 434.83C509.255 434.83 508.246 434.684 507.172 434.391C506.13 434.098 505.154 433.642 504.242 433.023C503.331 432.372 502.582 431.542 501.996 430.533C501.41 429.524 501.117 428.287 501.117 426.822C501.117 425.26 501.622 423.469 502.631 421.451C503.282 420.182 504.275 419.254 505.609 418.668C506.977 418.049 508.409 417.74 509.906 417.74C511.143 417.74 512.315 417.968 513.422 418.424C514.561 418.88 515.489 419.563 516.205 420.475ZM504.975 426.09L513.861 423.502C513.699 422.656 513.259 422.037 512.543 421.646C511.859 421.223 511.094 421.012 510.248 421.012C509.304 421.012 508.49 421.191 507.807 421.549C507.156 421.874 506.618 422.298 506.195 422.818C505.772 423.339 505.463 423.893 505.268 424.479C505.072 425.064 504.975 425.602 504.975 426.09ZM537.006 420.475C538.015 421.874 538.52 423.095 538.52 424.137C538.52 425.243 537.95 425.976 536.811 426.334L526.605 429.361C527.029 430.012 527.566 430.517 528.217 430.875C528.9 431.233 529.584 431.412 530.268 431.412C531.342 431.412 532.351 431.249 533.295 430.924C534.271 430.566 535.183 429.947 536.029 429.068C536.257 428.84 536.518 428.727 536.811 428.727C537.201 428.727 537.592 428.922 537.982 429.312C538.406 429.671 538.617 430.077 538.617 430.533C538.617 430.989 538.389 431.461 537.934 431.949C537.51 432.438 536.941 432.91 536.225 433.365C535.508 433.788 534.695 434.13 533.783 434.391C532.872 434.684 531.944 434.83 531 434.83C530.056 434.83 529.047 434.684 527.973 434.391C526.931 434.098 525.954 433.642 525.043 433.023C524.132 432.372 523.383 431.542 522.797 430.533C522.211 429.524 521.918 428.287 521.918 426.822C521.918 425.26 522.423 423.469 523.432 421.451C524.083 420.182 525.076 419.254 526.41 418.668C527.777 418.049 529.21 417.74 530.707 417.74C531.944 417.74 533.116 417.968 534.223 418.424C535.362 418.88 536.29 419.563 537.006 420.475ZM525.775 426.09L534.662 423.502C534.499 422.656 534.06 422.037 533.344 421.646C532.66 421.223 531.895 421.012 531.049 421.012C530.105 421.012 529.291 421.191 528.607 421.549C527.956 421.874 527.419 422.298 526.996 422.818C526.573 423.339 526.264 423.893 526.068 424.479C525.873 425.064 525.775 425.602 525.775 426.09ZM552.533 409.342C552.273 409.049 552.143 408.723 552.143 408.365C552.143 407.844 552.354 407.421 552.777 407.096C553.233 406.738 553.705 406.559 554.193 406.559C554.682 406.559 555.154 406.819 555.609 407.34C556.065 407.828 556.472 408.414 556.83 409.098C557.188 409.749 557.497 410.383 557.758 411.002C558.018 411.62 558.197 412.044 558.295 412.271C558.36 413.964 558.409 415.608 558.441 417.203C558.474 418.766 558.49 420.312 558.49 421.842C558.49 422.916 558.49 423.974 558.49 425.016C558.49 426.025 558.458 427.05 558.393 428.092C558.458 428.906 558.686 429.638 559.076 430.289C559.499 430.94 559.89 431.607 560.248 432.291C560.346 432.486 560.395 432.682 560.395 432.877C560.395 433.398 560.167 433.805 559.711 434.098C559.288 434.423 558.848 434.586 558.393 434.586C557.286 434.586 556.342 433.544 555.561 431.461C554.128 432.796 552.403 433.463 550.385 433.463C547.943 433.463 546.007 432.812 544.574 431.51C543.174 430.175 542.475 428.189 542.475 425.553C542.475 424.348 542.719 423.274 543.207 422.33C543.695 421.386 544.298 420.605 545.014 419.986C545.762 419.335 546.576 418.847 547.455 418.521C548.367 418.196 549.245 418.033 550.092 418.033C550.873 418.098 551.687 418.261 552.533 418.521C553.38 418.782 554.177 419.14 554.926 419.596C554.926 418.489 554.91 417.398 554.877 416.324C554.844 415.217 554.779 414.16 554.682 413.15C554.389 412.532 554.079 411.913 553.754 411.295C553.428 410.676 553.021 410.025 552.533 409.342ZM554.779 425.895V425.504C554.747 424.365 554.258 423.404 553.314 422.623C552.403 421.842 551.182 421.451 549.652 421.451C549.327 421.451 548.952 421.533 548.529 421.695C548.139 421.858 547.748 422.118 547.357 422.477C546.999 422.802 546.69 423.242 546.43 423.795C546.202 424.348 546.088 424.999 546.088 425.748C546.088 426.985 546.446 428.027 547.162 428.873C547.878 429.719 548.855 430.143 550.092 430.143C550.645 430.143 551.182 430.045 551.703 429.85C552.257 429.622 552.745 429.312 553.168 428.922C553.624 428.531 553.982 428.076 554.242 427.555C554.535 427.034 554.714 426.48 554.779 425.895Z" fill="#342713"/>
</svg>
